<svg id="visual" viewBox="0 0 900 600" width="900" height="600" xmlns="http://www.w3.org/2000/svg" xmlns:xlink="http://www.w3.org/1999/xlink" version="1.1"><rect x="0" y="0" width="900" height="600" fill="#cddbe9"></rect><path d="M0 564L9.3 565.5C18.7 567 37.3 570 56.2 568.2C75 566.3 94 559.7 112.8 556.8C131.7 554 150.3 555 169 558C187.7 561 206.3 566 225 566C243.7 566 262.3 561 281.2 561.3C300 561.7 319 567.3 337.8 566.5C356.7 565.7 375.3 558.3 394 557.8C412.7 557.3 431.3 563.7 450 565.5C468.7 567.3 487.3 564.7 506.2 561.8C525 559 544 556 562.8 555.5C581.7 555 600.3 557 619 556.2C637.7 555.3 656.3 551.7 675 552C693.7 552.3 712.3 556.7 731.2 558.2C750 559.7 769 558.3 787.8 559C806.7 559.7 825.3 562.3 844 564.2C862.7 566 881.3 567 890.7 567.5L900 568L900 601L890.7 601C881.3 601 862.7 601 844 601C825.3 601 806.7 601 787.8 601C769 601 750 601 731.2 601C712.3 601 693.7 601 675 601C656.3 601 637.7 601 619 601C600.3 601 581.7 601 562.8 601C544 601 525 601 506.2 601C487.3 601 468.7 601 450 601C431.3 601 412.7 601 394 601C375.3 601 356.7 601 337.8 601C319 601 300 601 281.2 601C262.3 601 243.7 601 225 601C206.3 601 187.7 601 169 601C150.3 601 131.7 601 112.8 601C94 601 75 601 56.2 601C37.3 601 18.7 601 9.3 601L0 601Z" fill="#ff9806"></path><path d="M0 563L9.3 563.2C18.7 563.3 37.3 563.7 56.2 564.2C75 564.7 94 565.3 112.8 566.8C131.7 568.3 150.3 570.7 169 571.7C187.7 572.7 206.3 572.3 225 571C243.7 569.7 262.3 567.3 281.2 566.2C300 565 319 565 337.8 566.7C356.7 568.3 375.3 571.7 394 572.8C412.7 574 431.3 573 450 570.8C468.7 568.7 487.3 565.3 506.2 566C525 566.7 544 571.3 562.8 570.5C581.7 569.7 600.3 563.3 619 560.3C637.7 557.3 656.3 557.7 675 558.7C693.7 559.7 712.3 561.3 731.2 563.5C750 565.7 769 568.3 787.8 567.5C806.7 566.7 825.3 562.3 844 560.7C862.7 559 881.3 560 890.7 560.5L900 561L900 601L890.7 601C881.3 601 862.7 601 844 601C825.3 601 806.7 601 787.8 601C769 601 750 601 731.2 601C712.3 601 693.7 601 675 601C656.3 601 637.7 601 619 601C600.3 601 581.7 601 562.8 601C544 601 525 601 506.2 601C487.3 601 468.7 601 450 601C431.3 601 412.7 601 394 601C375.3 601 356.7 601 337.8 601C319 601 300 601 281.2 601C262.3 601 243.7 601 225 601C206.3 601 187.7 601 169 601C150.3 601 131.7 601 112.8 601C94 601 75 601 56.2 601C37.3 601 18.7 601 9.3 601L0 601Z" fill="#ff8c26"></path><path d="M0 565L9.3 565.7C18.7 566.3 37.3 567.7 56.2 567.5C75 567.3 94 565.7 112.8 565.8C131.7 566 150.3 568 169 569.7C187.7 571.3 206.3 572.7 225 572.2C243.7 571.7 262.3 569.3 281.2 569.8C300 570.3 319 573.7 337.8 574.3C356.7 575 375.3 573 394 572.5C412.7 572 431.3 573 450 573.5C468.7 574 487.3 574 506.2 572.8C525 571.7 544 569.3 562.8 567.5C581.7 565.7 600.3 564.3 619 565.3C637.7 566.3 656.3 569.7 675 571.8C693.7 574 712.3 575 731.2 575.3C750 575.7 769 575.3 787.8 575.5C806.7 575.7 825.3 576.3 844 575.2C862.7 574 881.3 571 890.7 569.5L900 568L900 601L890.7 601C881.3 601 862.7 601 844 601C825.3 601 806.7 601 787.8 601C769 601 750 601 731.2 601C712.3 601 693.7 601 675 601C656.3 601 637.7 601 619 601C600.3 601 581.7 601 562.8 601C544 601 525 601 506.2 601C487.3 601 468.7 601 450 601C431.3 601 412.7 601 394 601C375.3 601 356.7 601 337.8 601C319 601 300 601 281.2 601C262.3 601 243.7 601 225 601C206.3 601 187.7 601 169 601C150.3 601 131.7 601 112.8 601C94 601 75 601 56.2 601C37.3 601 18.7 601 9.3 601L0 601Z" fill="#ff8238"></path><path d="M0 586L9.3 584C18.7 582 37.3 578 56.2 577.3C75 576.7 94 579.3 112.8 579.8C131.7 580.3 150.3 578.7 169 578.2C187.7 577.7 206.3 578.3 225 578.3C243.7 578.3 262.3 577.7 281.2 576.3C300 575 319 573 337.8 572.7C356.7 572.3 375.3 573.7 394 574C412.7 574.3 431.3 573.7 450 575C468.7 576.3 487.3 579.7 506.2 581.8C525 584 544 585 562.8 583C581.7 581 600.3 576 619 574.2C637.7 572.3 656.3 573.7 675 573.8C693.7 574 712.3 573 731.2 572.2C750 571.3 769 570.7 787.8 572.3C806.7 574 825.3 578 844 579.2C862.7 580.3 881.3 578.7 890.7 577.8L900 577L900 601L890.7 601C881.3 601 862.7 601 844 601C825.3 601 806.7 601 787.8 601C769 601 750 601 731.2 601C712.3 601 693.7 601 675 601C656.3 601 637.7 601 619 601C600.3 601 581.7 601 562.8 601C544 601 525 601 506.2 601C487.3 601 468.7 601 450 601C431.3 601 412.7 601 394 601C375.3 601 356.7 601 337.8 601C319 601 300 601 281.2 601C262.3 601 243.7 601 225 601C206.3 601 187.7 601 169 601C150.3 601 131.7 601 112.8 601C94 601 75 601 56.2 601C37.3 601 18.7 601 9.3 601L0 601Z" fill="#ff7847"></path><path d="M0 580L9.3 581.3C18.7 582.7 37.3 585.3 56.2 585.5C75 585.7 94 583.3 112.8 582.5C131.7 581.7 150.3 582.3 169 583.3C187.7 584.3 206.3 585.7 225 585C243.7 584.3 262.3 581.7 281.2 581.5C300 581.3 319 583.7 337.8 584.8C356.7 586 375.3 586 394 586.8C412.7 587.7 431.3 589.3 450 588.8C468.7 588.3 487.3 585.7 506.2 583.7C525 581.7 544 580.3 562.8 580.5C581.7 580.7 600.3 582.3 619 584C637.7 585.7 656.3 587.3 675 588.3C693.7 589.3 712.3 589.7 731.2 590C750 590.3 769 590.7 787.8 590.7C806.7 590.7 825.3 590.3 844 590.3C862.7 590.3 881.3 590.7 890.7 590.8L900 591L900 601L890.7 601C881.3 601 862.7 601 844 601C825.3 601 806.7 601 787.8 601C769 601 750 601 731.2 601C712.3 601 693.7 601 675 601C656.3 601 637.7 601 619 601C600.3 601 581.7 601 562.8 601C544 601 525 601 506.2 601C487.3 601 468.7 601 450 601C431.3 601 412.7 601 394 601C375.3 601 356.7 601 337.8 601C319 601 300 601 281.2 601C262.3 601 243.7 601 225 601C206.3 601 187.7 601 169 601C150.3 601 131.7 601 112.8 601C94 601 75 601 56.2 601C37.3 601 18.7 601 9.3 601L0 601Z" fill="#ff7054"></path><path d="M0 591L9.3 591.3C18.7 591.7 37.3 592.3 56.2 592C75 591.7 94 590.3 112.8 589.5C131.7 588.7 150.3 588.3 169 588.5C187.7 588.7 206.3 589.3 225 589.3C243.7 589.3 262.3 588.7 281.2 588C300 587.3 319 586.7 337.8 586.3C356.7 586 375.3 586 394 586.5C412.7 587 431.3 588 450 589.3C468.7 590.7 487.3 592.3 506.2 591.8C525 591.3 544 588.7 562.8 588.7C581.7 588.7 600.3 591.3 619 592.3C637.7 593.3 656.3 592.7 675 592.3C693.7 592 712.3 592 731.2 592C750 592 769 592 787.8 591.7C806.7 591.3 825.3 590.7 844 590.8C862.7 591 881.3 592 890.7 592.5L900 593L900 601L890.7 601C881.3 601 862.7 601 844 601C825.3 601 806.7 601 787.8 601C769 601 750 601 731.2 601C712.3 601 693.7 601 675 601C656.3 601 637.7 601 619 601C600.3 601 581.7 601 562.8 601C544 601 525 601 506.2 601C487.3 601 468.7 601 450 601C431.3 601 412.7 601 394 601C375.3 601 356.7 601 337.8 601C319 601 300 601 281.2 601C262.3 601 243.7 601 225 601C206.3 601 187.7 601 169 601C150.3 601 131.7 601 112.8 601C94 601 75 601 56.2 601C37.3 601 18.7 601 9.3 601L0 601Z" fill="#ff6961"></path></svg>