<svg id="visual" viewBox="0 0 900 600" width="900" height="600" xmlns="http://www.w3.org/2000/svg" xmlns:xlink="http://www.w3.org/1999/xlink" version="1.1"><rect x="0" y="0" width="900" height="600" fill="#cddbe9"></rect><path d="M0 497L13.7 500.7C27.3 504.3 54.7 511.7 82 513.7C109.3 515.7 136.7 512.3 163.8 515.7C191 519 218 529 245.2 529C272.3 529 299.7 519 327 520.2C354.3 521.3 381.7 533.7 409 531.7C436.3 529.7 463.7 513.3 491 509.5C518.3 505.7 545.7 514.3 573 516C600.3 517.7 627.7 512.3 654.8 512.7C682 513 709 519 736.2 517.8C763.3 516.7 790.7 508.3 818 511.5C845.3 514.7 872.7 529.3 886.3 536.7L900 544L900 601L886.3 601C872.7 601 845.3 601 818 601C790.7 601 763.3 601 736.2 601C709 601 682 601 654.8 601C627.7 601 600.3 601 573 601C545.7 601 518.3 601 491 601C463.7 601 436.3 601 409 601C381.7 601 354.3 601 327 601C299.7 601 272.3 601 245.2 601C218 601 191 601 163.8 601C136.7 601 109.3 601 82 601C54.7 601 27.3 601 13.7 601L0 601Z" fill="#ff9806"></path><path d="M0 559L13.7 558.7C27.3 558.3 54.7 557.7 82 554.2C109.3 550.7 136.7 544.3 163.8 543.5C191 542.7 218 547.3 245.2 551.5C272.3 555.7 299.7 559.3 327 560.7C354.3 562 381.7 561 409 557.8C436.3 554.7 463.7 549.3 491 543.5C518.3 537.7 545.7 531.3 573 530.2C600.3 529 627.7 533 654.8 534C682 535 709 533 736.2 533.3C763.3 533.7 790.7 536.3 818 540.8C845.3 545.3 872.7 551.7 886.3 554.8L900 558L900 601L886.3 601C872.7 601 845.3 601 818 601C790.7 601 763.3 601 736.2 601C709 601 682 601 654.8 601C627.7 601 600.3 601 573 601C545.7 601 518.3 601 491 601C463.7 601 436.3 601 409 601C381.7 601 354.3 601 327 601C299.7 601 272.3 601 245.2 601C218 601 191 601 163.8 601C136.7 601 109.3 601 82 601C54.7 601 27.3 601 13.7 601L0 601Z" fill="#ff8533"></path><path d="M0 545L13.7 544.2C27.3 543.3 54.7 541.7 82 541C109.3 540.3 136.7 540.7 163.8 546.3C191 552 218 563 245.2 568C272.3 573 299.7 572 327 571.8C354.3 571.7 381.7 572.3 409 567.2C436.3 562 463.7 551 491 548.2C518.3 545.3 545.7 550.7 573 555.7C600.3 560.7 627.7 565.3 654.8 565C682 564.7 709 559.3 736.2 559.2C763.3 559 790.7 564 818 561.7C845.3 559.3 872.7 549.7 886.3 544.8L900 540L900 601L886.3 601C872.7 601 845.3 601 818 601C790.7 601 763.3 601 736.2 601C709 601 682 601 654.8 601C627.7 601 600.3 601 573 601C545.7 601 518.3 601 491 601C463.7 601 436.3 601 409 601C381.7 601 354.3 601 327 601C299.7 601 272.3 601 245.2 601C218 601 191 601 163.8 601C136.7 601 109.3 601 82 601C54.7 601 27.3 601 13.7 601L0 601Z" fill="#ff764b"></path><path d="M0 562L13.7 563.5C27.3 565 54.7 568 82 568.5C109.3 569 136.7 567 163.8 569.8C191 572.7 218 580.3 245.2 580.5C272.3 580.7 299.7 573.3 327 572C354.3 570.7 381.7 575.3 409 575.3C436.3 575.3 463.7 570.7 491 569.5C518.3 568.3 545.7 570.7 573 573.2C600.3 575.7 627.7 578.3 654.8 579.5C682 580.7 709 580.3 736.2 581.2C763.3 582 790.7 584 818 583.2C845.3 582.3 872.7 578.7 886.3 576.8L900 575L900 601L886.3 601C872.7 601 845.3 601 818 601C790.7 601 763.3 601 736.2 601C709 601 682 601 654.8 601C627.7 601 600.3 601 573 601C545.7 601 518.3 601 491 601C463.7 601 436.3 601 409 601C381.7 601 354.3 601 327 601C299.7 601 272.3 601 245.2 601C218 601 191 601 163.8 601C136.7 601 109.3 601 82 601C54.7 601 27.3 601 13.7 601L0 601Z" fill="#ff6961"></path></svg>