<svg id="visual" viewBox="0 0 900 600" width="900" height="600" xmlns="http://www.w3.org/2000/svg" xmlns:xlink="http://www.w3.org/1999/xlink" version="1.1"><rect x="0" y="0" width="900" height="600" fill="#cddbe9"></rect><path d="M0 503L11.5 508.8C23 514.7 46 526.3 69 532.7C92 539 115 540 138.2 534.3C161.3 528.7 184.7 516.3 207.8 515.2C231 514 254 524 277 531.5C300 539 323 544 346 539.8C369 535.7 392 522.3 415.2 516.3C438.3 510.3 461.7 511.7 484.8 517.5C508 523.3 531 533.7 554 538.2C577 542.7 600 541.3 623 541.8C646 542.3 669 544.7 692.2 544.7C715.3 544.7 738.7 542.3 761.8 540.3C785 538.3 808 536.7 831 531.5C854 526.3 877 517.7 888.5 513.3L900 509L900 601L888.5 601C877 601 854 601 831 601C808 601 785 601 761.8 601C738.7 601 715.3 601 692.2 601C669 601 646 601 623 601C600 601 577 601 554 601C531 601 508 601 484.8 601C461.7 601 438.3 601 415.2 601C392 601 369 601 346 601C323 601 300 601 277 601C254 601 231 601 207.8 601C184.7 601 161.3 601 138.2 601C115 601 92 601 69 601C46 601 23 601 11.5 601L0 601Z" fill="#ff9806"></path><path d="M0 543L11.5 541C23 539 46 535 69 535.7C92 536.3 115 541.7 138.2 540C161.3 538.3 184.7 529.7 207.8 530.8C231 532 254 543 277 548.8C300 554.7 323 555.3 346 551C369 546.7 392 537.3 415.2 534C438.3 530.7 461.7 533.3 484.8 538.5C508 543.7 531 551.3 554 549.8C577 548.3 600 537.7 623 536.5C646 535.3 669 543.7 692.2 548.2C715.3 552.7 738.7 553.3 761.8 553.7C785 554 808 554 831 551.3C854 548.7 877 543.3 888.5 540.7L900 538L900 601L888.5 601C877 601 854 601 831 601C808 601 785 601 761.8 601C738.7 601 715.3 601 692.2 601C669 601 646 601 623 601C600 601 577 601 554 601C531 601 508 601 484.8 601C461.7 601 438.3 601 415.2 601C392 601 369 601 346 601C323 601 300 601 277 601C254 601 231 601 207.8 601C184.7 601 161.3 601 138.2 601C115 601 92 601 69 601C46 601 23 601 11.5 601L0 601Z" fill="#ff8a2b"></path><path d="M0 564L11.5 564.5C23 565 46 566 69 564.7C92 563.3 115 559.7 138.2 560.2C161.3 560.7 184.7 565.3 207.8 565.3C231 565.3 254 560.7 277 560.3C300 560 323 564 346 564.7C369 565.3 392 562.7 415.2 558.3C438.3 554 461.7 548 484.8 547C508 546 531 550 554 550C577 550 600 546 623 547.7C646 549.3 669 556.7 692.2 560.8C715.3 565 738.7 566 761.8 562.3C785 558.7 808 550.3 831 547.5C854 544.7 877 547.3 888.5 548.7L900 550L900 601L888.5 601C877 601 854 601 831 601C808 601 785 601 761.8 601C738.7 601 715.3 601 692.2 601C669 601 646 601 623 601C600 601 577 601 554 601C531 601 508 601 484.8 601C461.7 601 438.3 601 415.2 601C392 601 369 601 346 601C323 601 300 601 277 601C254 601 231 601 207.8 601C184.7 601 161.3 601 138.2 601C115 601 92 601 69 601C46 601 23 601 11.5 601L0 601Z" fill="#ff7d40"></path><path d="M0 565L11.5 563.7C23 562.3 46 559.7 69 561C92 562.3 115 567.7 138.2 568C161.3 568.3 184.7 563.7 207.8 561C231 558.3 254 557.7 277 559C300 560.3 323 563.7 346 564.7C369 565.7 392 564.3 415.2 562.8C438.3 561.3 461.7 559.7 484.8 558C508 556.3 531 554.7 554 556.8C577 559 600 565 623 569.3C646 573.7 669 576.3 692.2 575.7C715.3 575 738.7 571 761.8 568.3C785 565.7 808 564.3 831 562.3C854 560.3 877 557.7 888.5 556.3L900 555L900 601L888.5 601C877 601 854 601 831 601C808 601 785 601 761.8 601C738.7 601 715.3 601 692.2 601C669 601 646 601 623 601C600 601 577 601 554 601C531 601 508 601 484.8 601C461.7 601 438.3 601 415.2 601C392 601 369 601 346 601C323 601 300 601 277 601C254 601 231 601 207.8 601C184.7 601 161.3 601 138.2 601C115 601 92 601 69 601C46 601 23 601 11.5 601L0 601Z" fill="#ff7251"></path><path d="M0 575L11.5 574.2C23 573.3 46 571.7 69 572.7C92 573.7 115 577.3 138.2 578C161.3 578.7 184.7 576.3 207.8 575C231 573.7 254 573.3 277 572.7C300 572 323 571 346 571.7C369 572.3 392 574.7 415.2 575C438.3 575.3 461.7 573.7 484.8 575.5C508 577.3 531 582.7 554 585.3C577 588 600 588 623 586.3C646 584.7 669 581.3 692.2 579.3C715.3 577.3 738.7 576.7 761.8 576.7C785 576.7 808 577.3 831 577.7C854 578 877 578 888.5 578L900 578L900 601L888.5 601C877 601 854 601 831 601C808 601 785 601 761.8 601C738.7 601 715.3 601 692.2 601C669 601 646 601 623 601C600 601 577 601 554 601C531 601 508 601 484.8 601C461.7 601 438.3 601 415.2 601C392 601 369 601 346 601C323 601 300 601 277 601C254 601 231 601 207.8 601C184.7 601 161.3 601 138.2 601C115 601 92 601 69 601C46 601 23 601 11.5 601L0 601Z" fill="#ff6961"></path></svg>