<svg id="visual" viewBox="0 0 900 600" width="900" height="600" xmlns="http://www.w3.org/2000/svg" xmlns:xlink="http://www.w3.org/1999/xlink" version="1.1"><rect x="0" y="0" width="900" height="600" fill="#eeeeee"></rect><path d="M0 73L21.5 74.5C43 76 86 79 128.8 76.3C171.7 73.7 214.3 65.3 257.2 67.3C300 69.3 343 81.7 385.8 78.2C428.7 74.7 471.3 55.3 514.2 54.5C557 53.7 600 71.3 642.8 71C685.7 70.7 728.3 52.3 771.2 50C814 47.7 857 61.3 878.5 68.2L900 75L900 0L878.5 0C857 0 814 0 771.2 0C728.3 0 685.7 0 642.8 0C600 0 557 0 514.2 0C471.3 0 428.7 0 385.8 0C343 0 300 0 257.2 0C214.3 0 171.7 0 128.8 0C86 0 43 0 21.5 0L0 0Z" fill="#ff9806" stroke-linecap="round" stroke-linejoin="miter"></path></svg>